<svg width="21" height="22" viewBox="0 0 21 22" fill="none" xmlns="http://www.w3.org/2000/svg">
<path id="Arrow 1" d="M0.910584 18.9649C0.341122 19.5665 0.367229 20.5159 0.968897 21.0854C1.57057 21.6548 2.51995 21.6287 3.08942 21.0271L0.910584 18.9649ZM20.4994 1.99331C20.4767 1.1652 19.7869 0.512339 18.9588 0.535113L5.46387 0.906216C4.63575 0.92899 3.9829 1.61877 4.00567 2.44688C4.02844 3.275 4.71822 3.92786 5.54634 3.90508L17.5418 3.57521L17.8717 15.5707C17.8944 16.3988 18.5842 17.0516 19.4123 17.0289C20.2405 17.0061 20.8933 16.3163 20.8705 15.4882L20.4994 1.99331ZM3.08942 21.0271L11.5894 12.0464L9.41058 9.98416L0.910584 18.9649L3.08942 21.0271ZM11.5894 12.0464L20.0894 3.06565L17.9106 1.00344L9.41058 9.98416L11.5894 12.0464Z" fill="white"/>
</svg>
