<svg id="Warstwa_1" data-name="Warstwa 1" xmlns="http://www.w3.org/2000/svg" viewBox="0 0 224.25 113.06"><defs><style>.cls-1{fill:#fff;}</style></defs><path class="cls-1" d="M290.15,233.5c-5.83,0-20.38,1.95-26.76,4.4C251,242.68,240,251.6,240,251.6H197.65c21.71-12.74,55.19-21.18,93.07-22C290.75,230.15,290.9,233.5,290.15,233.5Z" transform="translate(-183.7 -229.44)"/><path class="cls-1" d="M395.09,251.42l-47.28.18s-11-8.92-23.39-13.7c-6.38-2.45-20.94-4.4-26.75-4.4-.83,0-.59-3.93-.59-3.93s2.6-.38,10.7.14c5.1.33,9.58.46,16.64,1.28h.21l.23,0,.86.1c1.44.18,3,.39,4.68.62,8.33,1.19,13.8,2.13,17.33,2.79l.8.17,1.32.26,1,.21.29.06.34.07.07,0,.09,0,.11,0a1.38,1.38,0,0,0,.27.08l.78.18.24.06.51.12.59.14.31.08.33.08C370.52,239.88,384.26,245.11,395.09,251.42Z" transform="translate(-183.7 -229.44)"/><path class="cls-1" d="M248.61,251.56" transform="translate(-183.7 -229.44)"/><path class="cls-1" d="M290.76,251.56v-14s-14.66.94-22.33,3.31c-10.43,3.22-19.82,10.69-19.82,10.69Z" transform="translate(-183.7 -229.44)"/><path class="cls-1" d="M296.53,251.56v-14s14.66.94,22.33,3.31c10.43,3.22,19.82,10.69,19.82,10.69Z" transform="translate(-183.7 -229.44)"/><path class="cls-1" d="M234.66,256.12,231,260.6H185.12a64.8,64.8,0,0,1,5.59-4.48Z" transform="translate(-183.7 -229.44)"/><path class="cls-1" d="M238.47,260.34l5-4.48H290.4l-.06,3.45v1H238.47Z" transform="translate(-183.7 -229.44)"/><path class="cls-1" d="M408,260.6H356.12l-3.66-4.48h49.89A66.55,66.55,0,0,1,408,260.6Z" transform="translate(-183.7 -229.44)"/><path class="cls-1" d="M349,260.6l-5-4.48H297.05l.06,3.45v1H349Z" transform="translate(-183.7 -229.44)"/><path class="cls-1" d="M242.32,323H202.16a93.12,93.12,0,0,1-11.07-6.75l44.35-.14Z" transform="translate(-183.7 -229.44)"/><polygon class="cls-1" points="59.08 86.64 66.07 93.64 107.54 93.64 107.54 86.64 59.4 86.64 59.08 86.64"/><polygon class="cls-1" points="161.82 86.59 154.82 93.58 113.35 93.58 113.35 86.59 161.49 86.59 161.82 86.59"/><path class="cls-1" d="M402,316.25a96.69,96.69,0,0,1-11,6.72H346.34l6.88-6.89Z" transform="translate(-183.7 -229.44)"/><path class="cls-1" d="M260.35,327.1h30.89v7.75s-13.8-1-18.22-2.26A45.3,45.3,0,0,1,260.35,327.1Z" transform="translate(-183.7 -229.44)"/><path class="cls-1" d="M327.94,327.1H297.05v7.75s13.8-1,18.22-2.26A45.3,45.3,0,0,0,327.94,327.1Z" transform="translate(-183.7 -229.44)"/><path class="cls-1" d="M291.24,338.75v3.7c-31.06-.59-59.18-6.31-80.32-15.35h38.39s13.31,6.55,18.09,7.75C284,339.05,291.24,338.75,291.24,338.75Z" transform="translate(-183.7 -229.44)"/><path class="cls-1" d="M382.06,327.14c-22.21,9.47-52.11,15.3-85,15.36v-3.71s7.22.3,23.84-3.9c4.78-1.2,18.1-7.75,18.1-7.75Z" transform="translate(-183.7 -229.44)"/><path class="cls-1" d="M228.82,270.55s-16.91.23-22.36,1.49a38.85,38.85,0,0,0-12.6,5.17c-3,1.92-8.86,7.56-8.86,11.12,0,11.18,5.62,11.73,9.18,13.89,3.08,1.87,10.28,3.6,13.87,3.94,7.93.76,31.88,0,31.88,0a20.62,20.62,0,0,0,9.95-3.62c2.84-2,3.3-3.54,3.43-4.07a6.87,6.87,0,0,0-1.3-5.3c-1.16-1.71-3.11-3.19-7.81-4.39a40.9,40.9,0,0,0-15.77-.78s6.65,3.82,6.22,8.73c-.36,4.13-4.88,6.45-7.32,7.3a18.51,18.51,0,0,1-7.5.64c-3.28-.72-9.3-.71-12.15-5.75-1.3-2.31-2.22-7.39-2.13-10.56.13-4.55,3.81-12.12,10.28-13.86C219.1,273.61,228.82,270.55,228.82,270.55Z" transform="translate(-183.7 -229.44)"/><path class="cls-1" d="M210.57,280.38,211,301.1l16.16-4.65V277.4l.86-.21s3.4,1.23,4.57,1.51c1.64.39,6.68,1,6.68,1l16.19-.26-19.12-7.06Z" transform="translate(-183.7 -229.44)"/><polygon class="cls-1" points="78.07 43.96 85.5 47.06 85.5 72.78 95.33 76.34 108.19 74.79 101.79 71.66 102.11 46.74 86.6 40.73 78.07 43.96"/><path class="cls-1" d="M323.68,276.17,303,280.7V302l6,2.2,5.82,2h10.72l14.15-5,.34-19.52Zm-.13,25.21-4.65-2V282.57l4.65,1.66Z" transform="translate(-183.7 -229.44)"/><path class="cls-1" d="M349,273.4l7.44,3.1v25.72l9.82,3.55,7,.24L373,276.18l-15.51-6Z" transform="translate(-183.7 -229.44)"/><path class="cls-1" d="M373.63,300.07c1,0,4.14.43,4.14.43V283.61l-3.45-2.16,9.91-3.44,10.08,4.56v19.65l-13.7,3.19-7.93.6S370.87,300,373.63,300.07Z" transform="translate(-183.7 -229.44)"/><path class="cls-1" d="M402.69,272c0-.23-.08-.46-.13-.69a9,9,0,0,0-.21-.9,4.54,4.54,0,0,0-.24-.61,2.3,2.3,0,0,0-.8-.92l0,0,.06,0a2.33,2.33,0,0,0,.56-.36,1.52,1.52,0,0,0,.48-.74,1.85,1.85,0,0,0,.07-.41,1.72,1.72,0,0,0,0-.56A1.43,1.43,0,0,0,402,266a2.16,2.16,0,0,0-.59-.39,3.09,3.09,0,0,0-1-.28,3.43,3.43,0,0,0-.56,0h-.53a3,3,0,0,0-.43,0l-.41,0-.5.07-.22,0v6.62s0,0,0,0h.87c.08,0,.07,0,.07-.08v-2.83s0,0,0,0h1.19a1.06,1.06,0,0,1,.25,0,1.2,1.2,0,0,1,.59.28,1.51,1.51,0,0,1,.33.38,2.85,2.85,0,0,1,.35.67,7.5,7.5,0,0,1,.33,1.32l0,.23,0,0h.89a0,0,0,0,0,0,0A.28.28,0,0,0,402.69,272Zm-2-3.67a3.26,3.26,0,0,1-.53.09h-1.48s0,0,0,0v-2.3h.11l.66,0h.53a2.6,2.6,0,0,1,.78.13l.28.11a.71.71,0,0,1,.14.1.86.86,0,0,1,.37.58,1.4,1.4,0,0,1,0,.61.93.93,0,0,1-.4.54A1.33,1.33,0,0,1,400.67,268.37Z" transform="translate(-183.7 -229.44)"/><path class="cls-1" d="M399.92,262.64a6.1,6.1,0,1,0,6.05,6.1A6.11,6.11,0,0,0,399.92,262.64Zm0,11.2a5.1,5.1,0,1,1,5.09-5.1A5.1,5.1,0,0,1,399.88,273.84Z" transform="translate(-183.7 -229.44)"/><path class="cls-1" d="M402.69,272c0-.23-.08-.46-.13-.69a9,9,0,0,0-.21-.9,4.54,4.54,0,0,0-.24-.61,2.3,2.3,0,0,0-.8-.92l0,0,.06,0a2.33,2.33,0,0,0,.56-.36,1.52,1.52,0,0,0,.48-.74,1.85,1.85,0,0,0,.07-.41,1.72,1.72,0,0,0,0-.56A1.43,1.43,0,0,0,402,266a2.16,2.16,0,0,0-.59-.39,3.09,3.09,0,0,0-1-.28,3.43,3.43,0,0,0-.56,0h-.53a3,3,0,0,0-.43,0l-.41,0-.5.07-.22,0v6.62s0,0,0,0h.87c.08,0,.07,0,.07-.08v-2.83s0,0,0,0h1.19a1.06,1.06,0,0,1,.25,0,1.2,1.2,0,0,1,.59.28,1.51,1.51,0,0,1,.33.38,2.85,2.85,0,0,1,.35.67,7.5,7.5,0,0,1,.33,1.32l0,.23,0,0h.89a0,0,0,0,0,0,0A.28.28,0,0,0,402.69,272Zm-2-3.67a3.26,3.26,0,0,1-.53.09h-1.48s0,0,0,0v-2.3h.11l.66,0h.53a2.6,2.6,0,0,1,.78.13l.28.11a.71.71,0,0,1,.14.1.86.86,0,0,1,.37.58,1.4,1.4,0,0,1,0,.61.93.93,0,0,1-.4.54A1.33,1.33,0,0,1,400.67,268.37Z" transform="translate(-183.7 -229.44)"/><path class="cls-1" d="M402.69,272c0-.23-.08-.46-.13-.69a9,9,0,0,0-.21-.9,4.54,4.54,0,0,0-.24-.61,2.3,2.3,0,0,0-.8-.92l0,0,.06,0a2.33,2.33,0,0,0,.56-.36,1.52,1.52,0,0,0,.48-.74,1.85,1.85,0,0,0,.07-.41,1.72,1.72,0,0,0,0-.56A1.43,1.43,0,0,0,402,266a2.16,2.16,0,0,0-.59-.39,3.09,3.09,0,0,0-1-.28,3.43,3.43,0,0,0-.56,0h-.53a3,3,0,0,0-.43,0l-.41,0-.5.07-.22,0v6.62s0,0,0,0h.87c.08,0,.07,0,.07-.08v-2.83s0,0,0,0h1.19a1.06,1.06,0,0,1,.25,0,1.2,1.2,0,0,1,.59.28,1.51,1.51,0,0,1,.33.38,2.85,2.85,0,0,1,.35.67,7.5,7.5,0,0,1,.33,1.32l0,.23,0,0h.89a0,0,0,0,0,0,0A.28.28,0,0,0,402.69,272Zm-2-3.67a3.26,3.26,0,0,1-.53.09h-1.48s0,0,0,0v-2.3h.11l.66,0h.53a2.6,2.6,0,0,1,.78.13l.28.11a.71.71,0,0,1,.14.1.86.86,0,0,1,.37.58,1.4,1.4,0,0,1,0,.61.93.93,0,0,1-.4.54A1.33,1.33,0,0,1,400.67,268.37Z" transform="translate(-183.7 -229.44)"/><path class="cls-1" d="M228.43,271s-35.7-3.77-43.92,16.28c-6.7,16.34,30.32,19.15,30.32,19.15S205,301.91,205,288.67C205,273.57,228.43,271,228.43,271Z" transform="translate(-183.7 -229.44)"/></svg>