<svg width="101" height="50" viewBox="0 0 101 50" fill="none" xmlns="http://www.w3.org/2000/svg">
<g id="logo">
<path id="Vector" d="M35.7383 20.2589L39.0288 21.63V33.0095L43.3704 34.5862L49.0601 33.9007L46.2495 32.5068L46.3866 21.4929L39.5315 18.8193L35.7383 20.2589Z" fill="#1C59AC"/>
<g id="Group">
<path id="Vector_2" d="M62.9532 21.2871L53.813 23.298V32.7352L56.4636 33.7178L59.0458 34.609H63.7987L70.0597 32.4153L70.1968 23.7778L62.9532 21.2871ZM62.9075 32.4382L60.851 31.547V24.1206L62.9075 24.8518V32.4382Z" fill="#1C59AC"/>
</g>
<g id="Group_2">
<path id="Vector_3" d="M84.1814 34.6318C84.2042 34.6318 84.2271 34.6318 84.2499 34.6318C84.2956 34.6318 84.3414 34.6318 84.4099 34.6318V34.609C84.4099 33.7406 84.4099 32.8952 84.387 32.0269" fill="#1C59AC"/>
</g>
<g id="Group_3">
<path id="Vector_4" d="M98.5772 19.6644C98.5544 19.573 98.5315 19.4588 98.5087 19.3674C98.4858 19.2303 98.463 19.0932 98.4173 18.9789C98.3944 18.8875 98.3487 18.7961 98.303 18.7047C98.2345 18.5447 98.0974 18.4076 97.9603 18.2934C97.9603 18.2934 97.9831 18.2934 97.9831 18.2705C98.0745 18.2248 98.1659 18.1791 98.2345 18.1106C98.3259 18.0192 98.3944 17.9049 98.4401 17.7907C98.463 17.7221 98.463 17.6764 98.4858 17.6079C98.4858 17.5165 98.4858 17.4479 98.463 17.3565C98.4401 17.2194 98.3716 17.1052 98.2573 17.0138C98.1888 16.9452 98.0974 16.8767 97.9831 16.831C97.846 16.7624 97.6861 16.7167 97.5261 16.7167C97.4576 16.6938 97.3662 16.6938 97.2748 16.6938C97.2062 16.6938 97.1148 16.6938 97.0463 16.6938C96.9777 16.6938 96.9092 16.6938 96.8406 16.7167C96.7721 16.7167 96.7264 16.7167 96.6578 16.7395C96.5893 16.7395 96.4979 16.7624 96.4293 16.7624L96.3379 16.7852V19.7101H96.7264C96.7721 19.7101 96.7492 19.7101 96.7492 19.6644V18.4076C96.7492 18.3848 96.7492 18.3848 96.7721 18.3848H97.2976C97.3433 18.3848 97.3662 18.3848 97.4119 18.3848C97.5033 18.4076 97.5947 18.4533 97.6632 18.499C97.7318 18.5447 97.7775 18.6133 97.8232 18.659C97.8917 18.7504 97.9374 18.8418 97.9831 18.956C98.0517 19.1389 98.0974 19.3445 98.1431 19.5502C98.1431 19.5959 98.1431 19.6187 98.1659 19.6644C98.1659 19.6644 98.1659 19.6644 98.1888 19.6873H98.5772H98.6001C98.5772 19.6873 98.5772 19.6644 98.5772 19.6644ZM97.6632 18.042C97.5947 18.0649 97.5033 18.0649 97.4347 18.0877C97.3662 18.0877 97.3205 18.0877 97.2519 18.0877H96.7721C96.7721 18.0877 96.7721 18.0877 96.7721 18.0649V17.0366C96.7949 17.0366 96.7949 17.0366 96.8178 17.0366C96.9092 17.0366 97.0234 17.0138 97.1148 17.0138C97.1834 17.0138 97.2748 17.0138 97.3433 17.0138C97.4576 17.0138 97.5718 17.0366 97.6861 17.0823C97.7318 17.1052 97.7775 17.1052 97.8232 17.128C97.846 17.1509 97.8689 17.1509 97.8917 17.1737C97.9831 17.2423 98.0288 17.3337 98.0517 17.4251C98.0745 17.5165 98.0745 17.6079 98.0517 17.6993C98.0288 17.7907 97.9603 17.8821 97.8689 17.9278C97.8003 17.9963 97.7546 18.0192 97.6632 18.042Z" fill="#1C59AC"/>
<path id="Vector_5" d="M97.3433 15.5059C95.8352 15.5059 94.6241 16.7169 94.6241 18.2022C94.6241 19.6875 95.8123 20.8986 97.3205 20.8986C98.8286 20.8986 100.017 19.6875 100.017 18.2022C100.017 16.7169 98.8286 15.5059 97.3433 15.5059ZM97.3205 20.4644C96.0637 20.4644 95.0583 19.4362 95.0583 18.2022C95.0583 16.9683 96.0865 15.9629 97.3205 15.9629C98.5544 15.9629 99.5827 16.9683 99.5827 18.2251C99.5827 19.4362 98.5772 20.4416 97.3205 20.4644Z" fill="#1C59AC"/>
<path id="Vector_6" d="M98.5772 19.6644C98.5544 19.573 98.5315 19.4588 98.5087 19.3674C98.4858 19.2303 98.463 19.0932 98.4173 18.9789C98.3944 18.8875 98.3487 18.7961 98.303 18.7047C98.2345 18.5447 98.0974 18.4076 97.9603 18.2934C97.9603 18.2934 97.9831 18.2934 97.9831 18.2705C98.0745 18.2248 98.1659 18.1791 98.2345 18.1106C98.3259 18.0192 98.3944 17.9049 98.4401 17.7907C98.463 17.7221 98.463 17.6764 98.4858 17.6079C98.4858 17.5165 98.4858 17.4479 98.463 17.3565C98.4401 17.2194 98.3716 17.1052 98.2573 17.0138C98.1888 16.9452 98.0974 16.8767 97.9831 16.831C97.846 16.7624 97.6861 16.7167 97.5261 16.7167C97.4576 16.6938 97.3662 16.6938 97.2748 16.6938C97.2062 16.6938 97.1148 16.6938 97.0463 16.6938C96.9777 16.6938 96.9092 16.6938 96.8406 16.7167C96.7721 16.7167 96.7264 16.7167 96.6578 16.7395C96.5893 16.7395 96.4979 16.7624 96.4293 16.7624L96.3379 16.7852V19.7101H96.7264C96.7721 19.7101 96.7492 19.7101 96.7492 19.6644V18.4076C96.7492 18.3848 96.7492 18.3848 96.7721 18.3848H97.2976C97.3433 18.3848 97.3662 18.3848 97.4119 18.3848C97.5033 18.4076 97.5947 18.4533 97.6632 18.499C97.7318 18.5447 97.7775 18.6133 97.8232 18.659C97.8917 18.7504 97.9374 18.8418 97.9831 18.956C98.0517 19.1389 98.0974 19.3445 98.1431 19.5502C98.1431 19.5959 98.1431 19.6187 98.1659 19.6644C98.1659 19.6644 98.1659 19.6644 98.1888 19.6873H98.5772H98.6001C98.5772 19.6873 98.5772 19.6644 98.5772 19.6644ZM97.6632 18.042C97.5947 18.0649 97.5033 18.0649 97.4347 18.0877C97.3662 18.0877 97.3205 18.0877 97.2519 18.0877H96.7721C96.7721 18.0877 96.7721 18.0877 96.7721 18.0649V17.0366C96.7949 17.0366 96.7949 17.0366 96.8178 17.0366C96.9092 17.0366 97.0234 17.0138 97.1148 17.0138C97.1834 17.0138 97.2748 17.0138 97.3433 17.0138C97.4576 17.0138 97.5718 17.0366 97.6861 17.0823C97.7318 17.1052 97.7775 17.1052 97.8232 17.128C97.846 17.1509 97.8689 17.1509 97.8917 17.1737C97.9831 17.2423 98.0288 17.3337 98.0517 17.4251C98.0745 17.5165 98.0745 17.6079 98.0517 17.6993C98.0288 17.7907 97.9603 17.8821 97.8689 17.9278C97.8003 17.9963 97.7546 18.0192 97.6632 18.042Z" fill="#1C59AC"/>
<path id="Vector_7" d="M98.5772 19.6644C98.5544 19.573 98.5315 19.4588 98.5087 19.3674C98.4858 19.2303 98.463 19.0932 98.4173 18.9789C98.3944 18.8875 98.3487 18.7961 98.303 18.7047C98.2345 18.5447 98.0974 18.4076 97.9603 18.2934C97.9603 18.2934 97.9831 18.2934 97.9831 18.2705C98.0745 18.2248 98.1659 18.1791 98.2345 18.1106C98.3259 18.0192 98.3944 17.9049 98.4401 17.7907C98.463 17.7221 98.463 17.6764 98.4858 17.6079C98.4858 17.5165 98.4858 17.4479 98.463 17.3565C98.4401 17.2194 98.3716 17.1052 98.2573 17.0138C98.1888 16.9452 98.0974 16.8767 97.9831 16.831C97.846 16.7624 97.6861 16.7167 97.5261 16.7167C97.4576 16.6938 97.3662 16.6938 97.2748 16.6938C97.2062 16.6938 97.1148 16.6938 97.0463 16.6938C96.9777 16.6938 96.9092 16.6938 96.8406 16.7167C96.7721 16.7167 96.7264 16.7167 96.6578 16.7395C96.5893 16.7395 96.4979 16.7624 96.4293 16.7624L96.3379 16.7852V19.7101H96.7264C96.7721 19.7101 96.7492 19.7101 96.7492 19.6644V18.4076C96.7492 18.3848 96.7492 18.3848 96.7721 18.3848H97.2976C97.3433 18.3848 97.3662 18.3848 97.4119 18.3848C97.5033 18.4076 97.5947 18.4533 97.6632 18.499C97.7318 18.5447 97.7775 18.6133 97.8232 18.659C97.8917 18.7504 97.9374 18.8418 97.9831 18.956C98.0517 19.1389 98.0974 19.3445 98.1431 19.5502C98.1431 19.5959 98.1431 19.6187 98.1659 19.6644C98.1659 19.6644 98.1659 19.6644 98.1888 19.6873H98.5772H98.6001C98.5772 19.6873 98.5772 19.6644 98.5772 19.6644ZM97.6632 18.042C97.5947 18.0649 97.5033 18.0649 97.4347 18.0877C97.3662 18.0877 97.3205 18.0877 97.2519 18.0877H96.7721C96.7721 18.0877 96.7721 18.0877 96.7721 18.0649V17.0366C96.7949 17.0366 96.7949 17.0366 96.8178 17.0366C96.9092 17.0366 97.0234 17.0138 97.1148 17.0138C97.1834 17.0138 97.2748 17.0138 97.3433 17.0138C97.4576 17.0138 97.5718 17.0366 97.6861 17.0823C97.7318 17.1052 97.7775 17.1052 97.8232 17.128C97.846 17.1509 97.8689 17.1509 97.8917 17.1737C97.9831 17.2423 98.0288 17.3337 98.0517 17.4251C98.0745 17.5165 98.0745 17.6079 98.0517 17.6993C98.0288 17.7907 97.9603 17.8821 97.8689 17.9278C97.8003 17.9963 97.7546 18.0192 97.6632 18.042Z" fill="#1C59AC"/>
</g>
<g id="Group_4">
<path id="Vector_8" d="M32.9277 28.5305C33.1105 28.7819 33.7731 29.7645 33.4989 30.8841C33.4304 31.1126 33.2476 31.7982 31.9908 32.6893C31.2596 33.2149 29.82 34.0375 27.5806 34.2889C27.5806 34.2889 16.978 34.6316 13.4818 34.2889C11.9052 34.1289 8.70609 33.3749 7.33505 32.5522C6.55814 32.0952 5.57556 31.7982 4.77579 31.0212C3.062 29.7873 2.17083 28.1421 3.062 25.9256C4.45588 22.5208 7.65496 20.67 11.0597 19.6645H11.0825C11.6995 19.4589 12.2479 19.3218 12.7506 19.2075C13.1619 19.1161 13.7332 19.0247 14.3959 18.9562C16.5895 18.6363 18.6461 18.5906 20.1314 18.6134H20.1542C21.0911 18.6363 21.7766 18.682 22.1651 18.7048C22.3707 18.7277 22.485 18.7277 22.485 18.7277C22.485 18.7277 22.2108 18.7505 21.7309 18.8419C20.7255 19.0247 18.8517 19.436 17.0465 20.2586C16.0411 20.7157 15.0585 21.3098 14.2359 22.041C13.0705 23.3892 12.4079 25.1715 12.385 26.4283C12.3393 27.8222 12.7506 30.0844 13.3219 31.1126C14.5787 33.352 17.2522 33.3291 18.6918 33.6491C19.4915 33.8319 21.2282 33.6262 22.0051 33.352C23.0791 32.9864 25.0899 31.9581 25.2499 30.1301C25.4327 27.9593 22.485 26.2683 22.485 26.2683C25.6155 25.8342 28.0148 26.2455 29.4544 26.6111C31.5566 27.1138 32.4021 27.7765 32.9277 28.5305Z" fill="#1C59AC"/>
<path id="Vector_9" d="M14.6015 22.8637L26.0039 19.3447L34.4586 22.4752L27.2836 22.5895C27.2836 22.5895 25.067 22.3153 24.3358 22.1325C23.8103 22.0182 22.325 21.4698 22.325 21.4698L21.9365 21.5612V29.9931L14.7843 32.0496L14.6015 22.8637Z" fill="#1C59AC"/>
<path id="Vector_10" d="M11.1054 19.642C12.2022 19.3221 13.3448 19.0935 14.4187 18.9336C13.7561 19.0021 13.1848 19.0935 12.7735 19.185C12.2708 19.2992 11.6995 19.4363 11.1054 19.642Z" fill="#1C59AC"/>
<g id="Group_5">
<path id="Vector_11" d="M14.4187 18.9336C13.3219 19.0935 12.2022 19.3221 11.1054 19.642C11.7224 19.4363 12.2708 19.2992 12.7735 19.185C13.1848 19.0707 13.7561 19.0021 14.4187 18.9336Z" fill="#1C59AC"/>
</g>
</g>
<path id="Vector_12" d="M29.2715 10.0442C34.093 6.50232 40.6054 4.21727 47.849 3.87451V10.0442H29.2715Z" fill="#1C59AC"/>
<path id="Vector_13" d="M70.2197 10.0444H50.6825V3.8291C58.2917 3.98906 65.1926 6.34266 70.2197 10.0444Z" fill="#1C59AC"/>
<path id="Vector_14" d="M43.119 0.492961C44.6728 0.401559 46.2495 0.355858 47.849 0.333008V1.77259C47.3235 1.79544 46.7979 1.84114 46.2495 1.88685C45.9753 1.9097 45.7011 1.93255 45.4269 1.9554C45.404 1.9554 45.404 1.9554 45.404 1.9554C45.107 1.97825 44.8328 2.02395 44.5586 2.0468C44.3301 2.06965 44.1016 2.11535 43.873 2.1382C43.6902 2.16105 43.5074 2.1839 43.3246 2.2296C42.8676 2.29816 42.4335 2.38956 41.9993 2.45811C41.7708 2.50381 41.5423 2.54951 41.3366 2.59521C40.8796 2.68661 40.4455 2.80087 40.0113 2.91512C39.7828 2.96082 39.5771 3.02937 39.3486 3.09792C39.1658 3.14363 38.9602 3.21218 38.7774 3.25788C38.5489 3.32643 38.3432 3.39498 38.1147 3.46353C37.8633 3.53208 37.612 3.62349 37.3606 3.71489C37.1093 3.80629 36.8579 3.89769 36.6066 3.96624C36.3552 4.05764 36.1039 4.14905 35.8525 4.24045C35.1441 4.51466 34.4586 4.81171 33.7731 5.13162C33.5446 5.22302 33.3389 5.33728 33.1333 5.45153C33.019 5.52008 32.8819 5.56578 32.7677 5.63433C32.6306 5.70288 32.4706 5.77144 32.3335 5.86284C32.1736 5.93139 32.0365 6.02279 31.8765 6.1142C31.6709 6.22845 31.4652 6.3427 31.2595 6.45695C31.0767 6.54836 30.9168 6.66261 30.734 6.75401C29.1116 7.73658 27.6263 8.83341 26.2781 10.0216H5.78119C6.39815 9.67888 7.01512 9.31327 7.67778 8.97051C7.99769 8.78771 8.34045 8.62776 8.66036 8.4678C8.86601 8.3764 9.07167 8.26215 9.27732 8.17074C9.48298 8.07934 9.66578 7.98794 9.87144 7.89654C10.2142 7.73658 10.5798 7.57663 10.9226 7.41668C11.3796 7.21102 11.8366 7.02821 12.2936 6.82256C12.5449 6.70831 12.7963 6.61691 13.0705 6.50265C13.3904 6.36555 13.7103 6.2513 14.0531 6.13704C14.3044 6.04564 14.5558 5.95424 14.8072 5.86284C15.0128 5.79429 15.2413 5.70288 15.447 5.63433C15.8126 5.49723 16.1782 5.38298 16.5438 5.24587C16.8866 5.13162 17.2293 5.01737 17.5721 4.90312C17.5949 4.90312 17.5949 4.88026 17.6178 4.88026C17.9605 4.76601 18.3261 4.65176 18.6917 4.53751C18.7603 4.51466 18.8517 4.49181 18.9203 4.46896C19.3087 4.3547 19.6972 4.24045 20.0856 4.1262C20.5198 4.01195 20.9311 3.89769 21.3653 3.78344C21.7766 3.66919 22.2107 3.55493 22.622 3.46353C22.6677 3.44068 22.7134 3.44068 22.7363 3.44068C23.1476 3.34928 23.5589 3.23503 23.9702 3.14363C23.9931 3.14363 24.0159 3.12077 24.0159 3.12077C24.9071 2.91512 25.7983 2.70947 26.7123 2.52666C27.1693 2.43526 27.6263 2.34385 28.1062 2.25245C28.586 2.16105 29.043 2.06965 29.5229 2.0011C29.9571 1.93255 30.3912 1.84114 30.8254 1.77259C30.9396 1.74974 31.0767 1.72689 31.191 1.70404C31.6023 1.63549 31.9908 1.56694 32.4021 1.52124C32.8819 1.45268 33.3846 1.38413 33.8645 1.31558C34.3444 1.24703 34.8471 1.17848 35.3498 1.13278C36.3552 1.01852 37.3606 0.904273 38.3661 0.812871C39.3715 0.721468 40.3998 0.630065 41.4509 0.561513C42.045 0.561513 42.5706 0.515811 43.119 0.492961Z" fill="#1C59AC"/>
<path id="Vector_15" d="M93.71 10.0446H73.2588C72.5047 9.35907 71.6821 8.71925 70.8366 8.10229C70.6995 8.01089 70.5624 7.89663 70.4253 7.80523C69.9912 7.50817 69.557 7.23397 69.1229 6.95976C68.9401 6.84551 68.7572 6.73126 68.5744 6.63986C68.2774 6.45705 67.9803 6.2971 67.6833 6.13714C67.5462 6.06859 67.4091 5.97719 67.2491 5.90864C66.9521 5.74868 66.6321 5.58873 66.3351 5.45162C66.198 5.38307 66.038 5.31452 65.8781 5.24597C65.8324 5.22312 65.7867 5.20027 65.741 5.17742C65.5353 5.08602 65.3297 4.99462 65.124 4.90321C64.8498 4.78896 64.5756 4.67471 64.3014 4.56046C64.0729 4.46905 63.8672 4.37765 63.6387 4.28625C63.4331 4.19485 63.2046 4.12629 62.9989 4.03489C62.9304 4.01204 62.8618 3.98919 62.7933 3.96634C62.5876 3.89779 62.3591 3.80639 62.1306 3.73783C61.8792 3.64643 61.6279 3.57788 61.3765 3.48648C61.148 3.41793 60.8967 3.32652 60.6453 3.28082C60.6225 3.28082 60.5768 3.25798 60.5539 3.25798C60.3025 3.18942 60.0512 3.12087 59.7998 3.05232C59.5485 2.98377 59.2743 2.91522 59.0001 2.84666C58.7487 2.77811 58.4974 2.73241 58.246 2.66386C57.9489 2.59531 57.6519 2.52676 57.3548 2.48105C57.1263 2.43535 56.9207 2.38965 56.6922 2.3668C56.5322 2.34395 56.3723 2.29825 56.2123 2.2754C56.0066 2.2297 55.801 2.20685 55.5953 2.184C55.0469 2.11545 54.5214 2.0469 53.9501 1.97834C53.5388 1.93264 53.1046 1.90979 52.6705 1.86409C52.2592 1.84124 51.8478 1.79554 51.4365 1.79554C51.1623 1.79554 50.8653 1.77269 50.5911 1.77269V0.355957C51.1395 0.355957 51.6879 0.378805 52.2363 0.378805C53.3331 0.401656 54.4071 0.424507 55.4811 0.493058C56.0295 0.515909 56.5551 0.538761 57.0806 0.584462C57.5833 0.607313 58.1089 0.653013 58.6116 0.675863C58.6573 0.675863 58.6802 0.675863 58.7259 0.675863C59.7541 0.744415 60.7824 0.835816 61.8107 0.950069C62.3134 0.99577 62.839 1.06432 63.3417 1.11002C63.8444 1.17857 64.3699 1.22428 64.8727 1.29283C65.3754 1.36138 65.8781 1.42993 66.3808 1.49848C66.8835 1.56704 67.3634 1.63559 67.8661 1.72699C68.3459 1.79554 68.8486 1.88694 69.3285 1.95549C69.8084 2.02405 70.2654 2.11545 70.7224 2.20685C70.8138 2.2297 70.9052 2.2297 70.9737 2.25255C71.3394 2.3211 71.7278 2.38965 72.0934 2.45821C72.162 2.48106 72.2534 2.48106 72.3219 2.50391C72.7561 2.59531 73.1902 2.68671 73.6016 2.77811C74.0129 2.86951 74.447 2.96092 74.8583 3.05232C75.2468 3.14372 75.6353 3.23513 76.0237 3.32653C76.2979 3.39508 76.595 3.46363 76.8692 3.53218C77.1434 3.60073 77.4176 3.66928 77.7147 3.73783C78.1488 3.85209 78.583 3.96634 78.9943 4.08059C79.04 4.10344 79.0628 4.10345 79.1085 4.1263C79.5198 4.24055 79.9083 4.3548 80.3196 4.46905C80.8452 4.62901 81.3707 4.78896 81.8735 4.94891C82.1934 5.04032 82.5133 5.15457 82.8332 5.26882C84.844 5.93149 86.7406 6.6627 88.523 7.46247C88.82 7.57673 89.0942 7.71383 89.3913 7.85093C90.9451 8.5136 92.3847 9.26767 93.71 10.0446Z" fill="#1C59AC"/>
<path id="Vector_16" d="M2.55926 12.124H24.153C23.5589 12.7867 23.0105 13.4951 22.5078 14.2263H0L2.55926 12.124Z" fill="#1C59AC"/>
<path id="Vector_17" d="M26.7808 12.124H47.849V14.2263H24.8614C25.4327 13.4951 26.0953 12.7867 26.7808 12.124Z" fill="#1C59AC"/>
<path id="Vector_18" d="M72.7104 12.124C73.4188 12.7867 74.0586 13.4951 74.6299 14.2263H50.6597V12.124H72.7104Z" fill="#1C59AC"/>
<path id="Vector_19" d="M99.4913 14.2263H76.9606C76.4579 13.4951 75.9095 12.8095 75.3383 12.124H96.932C97.846 12.8095 98.7144 13.4951 99.4913 14.2263Z" fill="#1C59AC"/>
<path id="Vector_20" d="M24.9299 38.7217C25.9354 39.7728 27.0779 40.7554 28.289 41.6694H8.93455C7.0608 40.7554 5.32416 39.7728 3.77032 38.7217H24.9299Z" fill="#1C59AC"/>
<path id="Vector_21" d="M27.7177 38.7217H47.849V41.6694H31.8994C30.3684 40.7782 28.9745 39.7957 27.7177 38.7217Z" fill="#1C59AC"/>
<path id="Vector_22" d="M71.7735 38.7217C70.5168 39.7957 69.1229 40.7782 67.6147 41.6694H50.6825V38.7217H71.7735Z" fill="#1C59AC"/>
<path id="Vector_23" d="M95.6981 38.7217C94.1442 39.75 92.4076 40.7325 90.5338 41.6694H71.1794C72.4134 40.7554 73.533 39.7728 74.5385 38.7217H95.6981Z" fill="#1C59AC"/>
<path id="Vector_24" d="M47.849 42.9492V46.1483C42.9362 45.9198 38.3432 44.7773 34.3901 42.9721H47.849V42.9492Z" fill="#1C59AC"/>
<path id="Vector_25" d="M30.2084 42.9492C35.0527 45.9883 41.1538 47.9078 47.849 48.2048V49.6444C33.9102 49.4388 21.2738 46.9252 11.8137 42.9492H30.2084Z" fill="#1C59AC"/>
<path id="Vector_26" d="M65.1012 42.9492C60.8967 44.8915 55.961 46.0569 50.6597 46.1711V42.9492H65.1012Z" fill="#1C59AC"/>
<path id="Vector_27" d="M87.6775 42.9492C77.9889 47.0166 64.987 49.553 50.6597 49.6673V48.2505C57.7205 48.0906 64.1872 46.1254 69.26 42.9492H87.6775Z" fill="#1C59AC"/>
<path id="Vector_28" d="M93.7557 24.2576V32.9408L87.7004 34.3575L84.4327 34.6089L84.2728 34.6317C84.2499 34.6317 84.2271 34.6317 84.2042 34.6317C83.2445 34.6089 82.3076 34.5632 81.3479 34.5403L77.0063 32.9636V21.5841L73.7158 20.213L77.4862 18.7734L84.3413 21.4241C84.3642 24.9659 84.387 28.4849 84.4099 32.0268C84.4784 32.0039 84.547 32.0039 84.6155 32.0039C85.0725 32.0039 86.4436 32.1867 86.4436 32.1867V24.7146L84.9126 23.7549L89.2999 22.2239L93.7557 24.2576Z" fill="#1C59AC"/>
</g>
</svg>
